<?xml version="1.0" encoding="UTF-8"?>
<svg width="94px" height="28px" viewBox="0 0 94 28" version="1.1" xmlns="http://www.w3.org/2000/svg" xmlns:xlink="http://www.w3.org/1999/xlink">
    <!-- Generator: Sketch 58 (84663) - https://sketch.com -->
    <title>Partner_InstantCare@3x</title>
    <desc>Created with Sketch.</desc>
    <g id="01_HomePage" stroke="none" stroke-width="1" fill="none" fill-rule="evenodd">
        <g id="01_HomePage_Confirmed" transform="translate(-531.000000, -818.000000)">
            <g id="Hero">
                <g id="Clients" transform="translate(123.000000, 770.000000)">
                    <g id="Partner_InstantCare" transform="translate(381.000000, 42.000000)">
                        <rect id="Glyph" fill="#D8D8D8" opacity="0" x="0" y="0" width="148" height="40"></rect>
                        <g id="logo-large" transform="translate(27.000000, 6.000000)" fill="#9A9797" fill-rule="nonzero">
                            <path d="M64.2490158,23.7912145 C63.0130215,23.7888147 61.8332138,23.2746364 60.9900356,22.3709006 C59.7881979,21.083186 59.4582197,19.208124 60.1482362,17.587476 C60.8382527,15.966828 62.418607,14.9051203 64.1798393,14.8789682 L64.2490158,14.8789682 C66.0717917,14.8748849 67.7119327,15.9851476 68.3853293,17.6789793 C68.4189873,17.7624794 68.4170034,17.856117 68.3798391,17.9381166 C68.3424342,18.02137 68.2729187,18.0859343 68.1871332,18.117097 L67.3169372,18.4349793 C67.1473868,18.4930698 66.9617472,18.4104302 66.891447,18.2455675 C66.3754868,16.9942841 65.0527393,16.2763161 63.7223781,16.5254433 C62.392017,16.7745705 61.4186844,17.9225089 61.3904456,19.2757006 C61.3622068,20.6288923 62.2868017,21.8164373 63.6056115,22.1208482 C64.9244212,22.4252591 66.2759697,21.7630992 66.8436823,20.5344301 C66.9032247,20.4002371 67.0570526,20.3357209 67.1945058,20.3872929 L67.1945058,20.3872929 L68.1668195,20.7496458 C68.2408264,20.7767598 68.3004,20.8331561 68.3315253,20.9055674 C68.36124,20.9757545 68.36124,21.0549881 68.3315253,21.1251752 C67.6206533,22.7455409 66.0184574,23.7918377 64.2490158,23.7912145 L64.2490158,23.7912145 Z" id="Path_29"></path>
                            <path d="M53.2098792,4.6304311 L54.6186634,4.6304311 C54.6847643,4.6304311 54.7383497,4.68401646 54.7383497,4.75011736 L54.7383497,12.956862 C54.7383497,13.0229629 54.6847643,13.0765482 54.6186634,13.0765482 L53.2098792,13.0765482 C53.1437783,13.0765482 53.0901929,13.0229629 53.0901929,12.956862 L53.0901929,4.75011736 C53.0901929,4.68401646 53.1437783,4.6304311 53.2098792,4.6304311 Z" id="Path_18"></path>
                            <path d="M61.8690159,8.85788182 L61.8690159,12.9332541 C61.8690159,13.0123933 61.804861,13.0765482 61.7257218,13.0765482 L60.3636042,13.0765482 C60.2844651,13.0765482 60.2203101,13.0123933 60.2203101,12.9332541 L60.2203101,9.27019553 C60.2607369,8.9132663 60.1393105,8.55697574 59.8893267,8.29902052 C59.6393429,8.0410653 59.2870381,7.90851846 58.9290161,7.93772502 C58.3840198,7.97938499 57.8975673,8.29520688 57.6377221,8.77607791 L57.6377221,12.9338032 C57.6377221,13.0129423 57.5735671,13.0770973 57.4944279,13.0770973 L56.1323104,13.0770973 C56.0531712,13.0770973 55.9890163,13.0129423 55.9890163,12.9338032 L55.9890163,6.70627411 C55.9890163,6.62713496 56.0531712,6.56298 56.1323104,6.56298 L57.384075,6.56298 C57.4632142,6.56298 57.5273691,6.62713496 57.5273691,6.70627411 L57.5273691,7.51113681 C57.9329897,6.81897887 58.6763378,6.39501526 59.4785847,6.39827413 C60.1297399,6.38153424 60.7582636,6.63767509 61.2122364,7.10478541 C61.6662092,7.57189572 61.9043202,8.20746889 61.8690159,8.85788182 Z" id="Path_19"></path>
                            <path d="M63.4809374,10.9919209 C63.504775,10.9598632 63.5410849,10.9394128 63.5808559,10.935645 C63.620627,10.9318773 63.6601312,10.9451452 63.6895648,10.9721562 C64.1901364,11.4589931 64.8474613,11.7520456 65.544153,11.7989797 C66.2178,11.7989797 66.7816431,11.6062738 66.7816431,11.2076856 C66.7816431,10.7816464 66.4791333,10.6998425 65.489251,10.4939602 C64.197957,10.2194504 63.0735649,9.6704308 63.0735649,8.43294067 C63.0735649,7.41615642 64.0903491,6.40156825 65.8768588,6.40156825 C66.7071331,6.4053937 67.5178993,6.65362642 68.2079959,7.11529369 C68.2394237,7.13674696 68.2609851,7.1698604 68.2678918,7.20728028 C68.2747985,7.24470015 68.2664788,7.28332884 68.2447802,7.3145878 L67.5766234,8.28964656 C67.5341435,8.35404807 67.447814,8.37239002 67.3828195,8.33082303 C66.9337468,8.0345041 66.4122561,7.86649564 65.8746627,7.84494071 C65.2570157,7.84494071 64.6931726,8.06454854 64.6931726,8.46313675 C64.6931726,8.86172496 65.1323883,8.95725437 66.2304274,9.19168573 C67.5217215,9.46619551 68.4424273,9.8922347 68.4424273,11.2395287 C68.4424273,12.3523914 67.2609372,13.2456463 65.5985059,13.2456463 C64.5422614,13.2588767 63.5209165,12.8678195 62.7436041,12.1525483 C62.692109,12.1019194 62.6873618,12.0205053 62.7326237,11.9642346 L63.4809374,10.9919209 Z" id="Path_20"></path>
                            <path d="M69.2445449,6.56298 L70.3788193,6.56298 L70.3788193,4.77152913 C70.3788193,4.69238998 70.4429743,4.62823502 70.5221134,4.62823502 L71.885329,4.62823502 C71.9644682,4.62823502 72.0286232,4.69238998 72.0286232,4.77152913 L72.0286232,6.56517608 L73.8502701,6.56517608 C73.9294093,6.56517608 73.9935642,6.62933104 73.9935642,6.70847019 L73.9935642,7.90094071 C73.9935642,7.98007986 73.9294093,8.04423481 73.8502701,8.04423481 L72.0280741,8.04423481 L72.0280741,10.6690974 C72.0280741,11.4657248 72.4409369,11.6996071 72.8807015,11.6996071 C73.0759681,11.693645 73.2669243,11.6407271 73.4374074,11.5453326 C73.4722322,11.526708 73.5132512,11.5234675 73.5505684,11.536393 C73.5878857,11.5493185 73.6181124,11.5772363 73.6339564,11.6134111 L74.1198387,12.6955287 C74.1503454,12.7645241 74.1225976,12.8453753 74.0561524,12.8810973 C73.6092897,13.1174206 73.1111448,13.2401656 72.6056427,13.238509 C71.9964489,13.2523098 71.4092675,13.0105943 70.9863384,12.5719161 C70.5634092,12.1332379 70.3433138,11.5376153 70.3793684,10.9293327 L70.3793684,8.04697991 L69.2445449,8.04697991 C69.1654057,8.04697991 69.1012497,7.98282495 69.1012497,7.9036858 L69.1012497,6.70627411 C69.1011042,6.66822539 69.1161541,6.63169272 69.1430588,6.60478801 C69.1699635,6.5778833 69.2064962,6.56283338 69.2445449,6.56298 L69.2445449,6.56298 Z" id="Path_21"></path>
                            <path d="M81.0023481,8.83043085 L81.0023481,12.9332541 C81.0023481,13.0123933 80.9381932,13.0765482 80.859054,13.0765482 L79.6204658,13.0765482 C79.5413267,13.0765482 79.4771717,13.0123933 79.4771717,12.9332541 L79.4771717,12.2519208 C78.9582906,12.9009023 78.1637234,13.2671561 77.3332503,13.2401561 C76.7269665,13.2807555 76.1308425,13.0690942 75.6859148,12.6552491 C75.2409872,12.2414041 74.9867838,11.6621416 74.9834465,11.0545091 C74.9834465,9.80384255 76.1237602,8.89686221 77.5391326,8.89686221 C78.1763312,8.86652891 78.8078325,9.02937969 79.3508972,9.36407787 L79.3508972,8.99294064 C79.3508972,8.14086226 78.5273679,7.86635247 77.9487012,7.86635247 C77.3219373,7.89394011 76.7056622,8.03707378 76.1308974,8.28854853 C76.0954237,8.30343247 76.0554331,8.30330828 76.0200525,8.28820429 C75.984672,8.27310031 75.9569208,8.2443055 75.9431327,8.20839167 L75.5121524,7.11419565 C75.4835938,7.04203684 75.5176688,6.96025686 75.5890151,6.92972508 C76.3613143,6.59700968 77.1903669,6.41584081 78.0310542,6.39607805 C79.9026619,6.39827413 81.0023481,7.34588192 81.0023481,8.83043085 Z M79.3552894,11.1116072 L79.3552894,10.4379602 C78.8935685,10.214212 78.3859652,10.1014113 77.8729365,10.1085484 C77.3639954,10.1085484 76.6650935,10.3281562 76.6650935,11.0287052 C76.6650935,11.7155287 77.3387405,11.8670581 77.8465836,11.8670581 C78.437888,11.8590001 78.9929566,11.5806567 79.3530933,11.1116072 L79.3552894,11.1116072 Z" id="Path_22"></path>
                            <path d="M88.1324653,8.85788182 L88.1324653,12.9332541 C88.1324653,13.0123933 88.0683104,13.0765482 87.9891712,13.0765482 L86.6281517,13.0765482 C86.5490125,13.0765482 86.4848576,13.0123933 86.4848576,12.9332541 L86.4848576,9.27019553 C86.5249231,8.91315343 86.40322,8.5569026 86.1530768,8.29900213 C85.9029335,8.04110167 85.5505644,7.90857886 85.1924655,7.93772502 C84.6474693,7.97938499 84.1610167,8.29520688 83.9011715,8.77607791 L83.9011715,12.9338032 C83.9011715,13.0129423 83.8370165,13.0770973 83.7578774,13.0770973 L82.3957598,13.0770973 C82.3166206,13.0770973 82.2524657,13.0129423 82.2524657,12.9338032 L82.2524657,6.70627411 C82.2524657,6.62713496 82.3166206,6.56298 82.3957598,6.56298 L83.6475244,6.56298 C83.7266636,6.56298 83.7908185,6.62713496 83.7908185,6.70627411 L83.7908185,7.51113681 C84.1964391,6.81897887 84.9397872,6.39501526 85.7420341,6.39827413 C86.3932388,6.38136685 87.0218623,6.63745499 87.4758726,7.10460384 C87.9298829,7.5717527 88.1679383,8.20742425 88.1324653,8.85788182 Z" id="Path_23"></path>
                            <path d="M89.0718378,6.56298 L90.2061123,6.56298 L90.2061123,4.77152913 C90.2061123,4.69238998 90.2702672,4.62823502 90.3494064,4.62823502 L91.7115239,4.62823502 C91.7906631,4.62823502 91.8548181,4.69238998 91.8548181,4.77152913 L91.8548181,6.56517608 L93.676465,6.56517608 C93.7556042,6.56517608 93.8197591,6.62933104 93.8197591,6.70847019 L93.8197591,7.90094071 C93.8197591,7.98007986 93.7556042,8.04423481 93.676465,8.04423481 L91.8548181,8.04423481 L91.8548181,10.6690974 C91.8548181,11.4657248 92.2676808,11.6996071 92.7074455,11.6996071 C92.902712,11.693645 93.0936682,11.6407271 93.2641513,11.5453326 C93.2989761,11.526708 93.3399951,11.5234675 93.3773123,11.536393 C93.4146296,11.5493185 93.4448563,11.5772363 93.4607003,11.6134111 L93.9465826,12.6955287 C93.9770893,12.7645241 93.9493416,12.8453753 93.8828964,12.8810973 C93.4360336,13.1174206 92.9378887,13.2401656 92.4323866,13.238509 C91.8231928,13.2523098 91.2360114,13.0105943 90.8130823,12.5719161 C90.3901531,12.1332379 90.1700577,11.5376153 90.2061123,10.9293327 L90.2061123,8.04697991 L89.0718378,8.04697991 C88.9926987,8.04697991 88.9285427,7.98282495 88.9285427,7.9036858 L88.9285427,6.70627411 C88.9283971,6.66822539 88.943447,6.63169272 88.9703517,6.60478801 C88.9972564,6.5778833 89.0337891,6.56283338 89.0718378,6.56298 L89.0718378,6.56298 Z" id="Path_24"></path>
                            <path d="M58.8790553,20.1742733 C58.8790553,20.2967047 58.8790553,20.5415674 58.8658788,20.7869792 L54.045487,20.7869792 C54.2862294,21.5809208 55.0279008,22.116048 55.8572516,22.0941948 C56.4547392,22.0997393 57.0368864,21.9051104 57.5108985,21.541332 C57.5421406,21.5167669 57.582294,21.5065167 57.6214879,21.5131013 C57.6606818,21.5196858 57.6952812,21.5424945 57.7167809,21.5759203 L58.3717612,22.5581163 C58.4135819,22.6200035 58.4003921,22.7036983 58.3415652,22.7497241 C57.6253306,23.2898459 56.7542897,23.5851335 55.8572516,23.5919202 C54.9441578,23.6135047 54.0609467,23.2659292 53.407459,22.6278384 C52.7539713,21.9897475 52.3854402,21.1150731 52.3852518,20.2017243 C52.3368912,19.013399 52.9415482,17.8935806 53.9616789,17.2821976 C54.9818096,16.6708146 56.254435,16.6655434 57.2795953,17.2684548 C58.3047557,17.8713661 58.9186683,18.9861372 58.8801534,20.1748223 L58.8790553,20.1742733 Z M57.2418789,19.6021949 C57.0873635,18.8415186 56.4185214,18.2948785 55.6423104,18.2948785 C54.8660995,18.2948785 54.1972573,18.8415186 54.0427419,19.6021949 L57.2418789,19.6021949 Z" id="Path_25"></path>
                            <path d="M75.1585838,19.2206263 L75.1585838,23.2833712 C75.1585838,23.3625103 75.0944288,23.4266653 75.0152896,23.4266653 L73.790976,23.4266653 C73.7118368,23.4266653 73.6476819,23.3625103 73.6476819,23.2833712 L73.6476819,22.6108222 C73.133642,23.254056 72.3465129,23.6174089 71.5235251,23.5913711 C70.9228166,23.6316691 70.3321459,23.4220143 69.8912687,23.012012 C69.4503914,22.6020096 69.1984783,22.0280874 69.1951331,21.4260379 C69.1951331,20.1869008 70.3250154,19.2887047 71.7272114,19.2887047 C72.3593357,19.258206 72.9859118,19.4195388 73.5247015,19.7515282 L73.5247015,19.3842341 C73.5247015,18.539842 72.7077604,18.2680773 72.135682,18.2680773 C71.5151877,18.2954128 70.9050699,18.4370539 70.3359958,18.6858812 C70.3005221,18.7007652 70.2605315,18.700641 70.2251509,18.685537 C70.1897703,18.670433 70.1620192,18.6416382 70.1482311,18.6057244 L69.7221919,17.5241558 C69.6936334,17.451997 69.7277084,17.370217 69.7990547,17.3396852 C70.563963,17.0104637 71.384968,16.8311659 72.2174859,16.8115284 C74.0687799,16.8115284 75.1585838,17.7503519 75.1585838,19.2206263 Z M73.5241525,21.4814889 L73.5241525,20.8138811 C73.0662297,20.5918594 72.5627344,20.4799924 72.0538781,20.4872145 C71.5493291,20.4872145 70.8553683,20.7068223 70.8553683,21.399136 C70.8553683,22.0799203 71.5229761,22.2298026 72.0264271,22.2298026 C72.6140809,22.2235442 73.16628,21.9476471 73.5241525,21.4814889 Z" id="Path_26"></path>
                            <path d="M80.7772501,17.1546656 L80.3116815,18.3509793 C80.285144,18.4213352 80.2082567,18.4586943 80.1365442,18.4360773 C79.9257648,18.3676574 79.7053609,18.3335494 79.48376,18.3350577 C78.882985,18.3513066 78.3350898,18.6825048 78.0414855,19.2069008 L78.0414855,23.2839202 C78.0414855,23.3630593 77.9773306,23.4272143 77.8981914,23.4272143 L76.5508974,23.4272143 C76.4717582,23.4272143 76.4076033,23.3630593 76.4076033,23.2839202 L76.4076033,17.1167833 C76.4076033,17.0787793 76.4227003,17.0423319 76.4495732,17.0154591 C76.476446,16.9885862 76.5128934,16.9734892 76.5508974,16.9734892 L77.8136424,16.9734892 C77.8516464,16.9734892 77.8880938,16.9885862 77.9149667,17.0154591 C77.9418395,17.0423319 77.9569365,17.0787793 77.9569365,17.1167833 L77.9569365,17.9128617 C78.3083659,17.2618698 78.9763315,16.8437396 79.7154462,16.8120774 C80.0445276,16.8173849 80.3711774,16.8695158 80.6855638,16.9669009 C80.7233784,16.9785788 80.7546793,17.0053763 80.772045,17.0409396 C80.7894107,17.0765028 80.7912946,17.1176648 80.7772501,17.1546656 Z" id="Path_27"></path>
                            <path d="M87.3303477,20.1742733 C87.3303477,20.2967047 87.3303477,20.5415674 87.3171713,20.7869792 L82.4967794,20.7869792 C82.7375218,21.5809208 83.4791933,22.116048 84.308544,22.0941948 C84.9060316,22.0997393 85.4881788,21.9051104 85.962191,21.541332 C85.9934331,21.5167669 86.0335864,21.5065167 86.0727803,21.5131013 C86.1119742,21.5196858 86.1465737,21.5424945 86.1680733,21.5759203 L86.8230536,22.5581163 C86.8648743,22.6200035 86.8516845,22.7036983 86.7928576,22.7497241 C86.076623,23.2898459 85.2055821,23.5851335 84.308544,23.5919202 C83.3954502,23.6135047 82.5122392,23.2659292 81.8587514,22.6278384 C81.2052637,21.9897475 80.8367326,21.1150731 80.8365442,20.2017243 C80.7881837,19.013399 81.3928406,17.8935806 82.4129713,17.2821976 C83.433102,16.6708146 84.7057274,16.6655434 85.7308878,17.2684548 C86.7560481,17.8713661 87.3699607,18.9861372 87.3314458,20.1748223 L87.3303477,20.1742733 Z M85.6959165,19.6021949 C85.541401,18.8415186 84.8725589,18.2948785 84.0963479,18.2948785 C83.320137,18.2948785 82.6512948,18.8415186 82.4967794,19.6021949 L85.6959165,19.6021949 Z" id="Path_28"></path>
                            <path d="M45.60486,18.1665087 C43.9196026,21.8322382 40.1718826,24.1021801 36.1425076,23.8977241 C31.4077628,23.6517633 27.0996062,19.3408616 26.8053317,14.5534109 C26.4333356,9.78952131 29.5287605,5.44384264 34.1526326,4.23850776 C38.7765047,3.03317288 43.5994888,5.31470823 45.6004679,9.65396021 C45.8109457,10.1272758 46.3511846,10.3577458 46.838507,10.182117 L48.6244677,9.52329355 C48.8821303,9.42787114 49.089061,9.23045178 49.1964929,8.97756082 C49.3039248,8.72466987 49.3023552,8.43867642 49.1921539,8.1869799 C46.6366786,2.39042179 40.443978,-0.902013816 34.2094895,0.221237537 C27.9750011,1.34448889 23.3207736,6.59118693 22.9490182,12.9151365 C22.3741154,19.605126 26.7214249,25.7297355 33.226476,27.3943026 C39.7315271,29.0588696 46.4863166,25.7751581 49.195448,19.6312929 C49.3064213,19.3786697 49.3083052,19.0914641 49.2006556,18.8374068 C49.0930059,18.5833495 48.8853519,18.3849297 48.6266638,18.2889401 L46.8434482,17.6301166 C46.3538322,17.4572317 45.8137344,17.6911305 45.60486,18.1665087 Z" id="Path_30"></path>
                            <path d="M35.4123116,23.8252535 C30.9729393,23.2032143 27.0825866,19.0954498 26.8036847,14.5539599 C26.7959984,14.4298815 26.7877631,13.8847051 26.785018,13.7611757 L23.0516849,14.1828227 C23.0075533,14.1808723 22.9635641,14.1764733 22.9199202,14.1696462 C23.0189656,21.7050089 29.127701,27.7766523 36.6635272,27.8298023 C36.9874488,27.8298023 37.3075272,27.8144297 37.6259585,27.7924689 C36.9034488,26.4601814 36.1655665,25.1377763 35.4123116,23.8252535 Z" id="Path_31"></path>
                            <path d="M13.0265875,0.000549019575 C7.14467062,0.0494776648 1.93477454,3.80705661 0.0318431354,9.37286219 C-0.0649801109,9.66371427 0.071457765,9.98096774 0.34917645,10.1107445 L0.34917645,10.1107445 C0.352470567,10.1107445 0.353568606,10.1151367 0.356862724,10.1162347 L11.3087052,15.2770187 C11.5466364,15.3884266 11.8192564,15.3999859 12.0657642,15.3091183 C12.312272,15.2182508 12.5121649,15.0325143 12.620862,14.7933325 L13.4224306,13.0545875 C13.6535939,12.5554789 13.4404487,11.9632728 12.9442345,11.7259601 L5.06690166,8.01513678 C7.09051662,5.19026456 10.4578238,3.64706339 13.9187443,3.95843114 C19.1952181,4.49552759 23.1351864,9.0576696 22.8984232,14.3561214 C22.66166,19.6545733 18.3304854,23.8471163 13.0271365,23.9114496 C9.19073564,23.9017703 5.70753496,21.6698497 4.09568603,18.1884695 C3.8781871,17.7241681 3.34680796,17.4971093 2.86094101,17.6608617 L1.07443131,18.3196852 C0.816001439,18.4153488 0.608447702,18.6133318 0.500699399,18.8669612 C0.392951096,19.1205905 0.394542341,19.4074237 0.505098009,19.659842 C2.86420961,24.971763 8.30986316,28.2252618 14.1054109,27.7853317 C21.2536458,27.2302729 26.6307435,21.0774105 26.7954494,13.8237639 C27.0035278,4.67380364 20.643136,-0.0647843099 13.0265875,0.000549019575 Z" id="Path_32"></path>
                        </g>
                    </g>
                </g>
            </g>
        </g>
    </g>
</svg>